<svg xmlns="http://www.w3.org/2000/svg" viewBox="0 0 175.216 175.552" width="175" height="176">
  <defs>
    <clipPath id="a">
      <path fill="#fff" d="M0 0h175.216v175.552H0z"/>
    </clipPath>
  </defs>
  <g clip-path="url(#a)">
    <path fill="#25d366" d="M0 0h175.216v175.552H0z"/>
    <path fill="#fff" d="M87.608 21.892c-36.338 0-65.856 29.518-65.856 65.856 0 12.765 3.652 24.681 10.003 34.828L21.892 151.32l30.263-9.981c9.723 5.913 21.127 9.371 33.453 9.371 36.338 0 65.856-29.518 65.856-65.856 0-36.338-29.518-65.856-65.856-65.856zm0 121.174c-10.525 0-20.437-3.071-28.708-8.388l-2.056-1.219-21.313 7.03 7.155-21.134-1.326-2.108c-6.091-9.687-9.575-20.93-9.575-32.695 0-30.134 24.533-54.667 54.667-54.667 30.134 0 54.667 24.533 54.667 54.667 0 30.134-24.533 54.667-54.667 54.667z"/>
    <path fill="#25d366" d="M122.765 100.392c-1.652-.827-9.755-4.817-11.271-5.369-1.516-.552-2.618-.827-3.72.827-1.102 1.654-4.268 5.369-5.23 6.471-.962 1.102-1.924 1.239-3.576.414-9.755-4.888-16.154-8.745-22.619-19.863-1.516-2.619-.165-4.035.99-5.337 1.102-1.102 2.48-2.893 3.72-4.335 1.24-1.44 1.652-2.48.827-3.582-.827-1.102-3.72-9.003-5.095-12.311-1.376-3.308-2.893-2.893-3.72-2.893-1.102 0-2.204-.138-3.306-.138-1.102 0-2.893.414-4.409 2.068-1.516 1.654-5.78 5.643-5.78 13.76 0 8.118 5.92 15.948 6.745 17.05 1.102 1.239 15.153 23.167 36.855 32.513 5.092 2.205 9.065 3.52 12.16 4.482 5.092 1.652 9.72 1.446 13.368.87 4.081-.621 12.573-5.142 14.323-10.1 1.75-4.96 1.75-9.196 1.239-10.1-.551-1.102-1.654-1.516-3.306-2.343z"/>
  </g>
</svg>
